<svg height="512pt" viewBox="0 0 512 512" width="512pt" xmlns="http://www.w3.org/2000/svg"><path d="m238.132812 136.21875 6.398438-3.972656v112.285156c0 14.117188 34.410156 14.117188 34.410156 0v-140.300781c0-6.617188-8.160156-10.808594-15.21875-10.808594-6.75 0-5.875 2-35.515625 19.191406-13.667969 8.199219-3.101562 32.289063 9.925781 23.605469zm0 0"/><path d="m492 78.667969h-78.652344v-58.667969c0-11.046875-8.953125-20-20-20h-274.695312c-11.042969 0-20 8.953125-20 20v58.667969h-78.652344c-11.046875 0-20 8.953125-20 20v49.042969c0 58.605468 42.71875 107.417968 98.652344 116.945312v28.425781c0 6.6875 3.34375 12.929688 8.90625 16.640625 38.53125 25.6875 82.578125 40.792969 128.441406 44.203125v38.074219h-20c-55.140625 0-100 44.859375-100 100 0 11.046875 8.953125 20 20 20h246.925781c11.042969 0 20-8.953125 20-20 0-55.140625-44.859375-100-100-100h-26.925781v-38.078125c45.863281-3.40625 89.910156-18.511719 128.441406-44.199219 5.5625-3.710937 8.90625-9.953125 8.90625-16.644531v-28.421875c55.933594-9.527344 98.652344-58.339844 98.652344-116.945312v-49.042969c0-11.046875-8.953125-20-20-20zm-393.347656 145.101562c-33.710938-8.867187-58.652344-39.601562-58.652344-76.058593v-29.042969h58.652344zm260.84375 248.230469h-200.070313c8.253907-23.28125 30.5-40 56.574219-40h86.925781c26.074219 0 48.316407 16.71875 56.570313 40zm13.851562-189.910156c-72.335937 43.59375-162.367187 43.589844-234.695312 0v-242.089844h234.695312zm98.652344-134.378906c0 36.457031-24.941406 67.191406-58.652344 76.058593v-105.101562h58.652344zm0 0"/></svg>